# xmcd
# 
# Track frame offsets:
#     150
#     17963
#     37100
#     53750
#     74075
#     92538
#     113075
#     133388
#     153963
#     171075
# 
# Disc length: 3093
# 
# Revision: 1
# Processed by: cddbd v1.5.2PL0 Copyright (c) Steve Scherf et al.
# Submitted via: BonkEnc v1.0.15
# 
DISCID=8a0c130a
DTITLE=鄭伊健 - Got To Be Real
DYEAR=1994
DGENRE=
TTITLE0=9990次想他\n
TTITLE1=我是妳未來
TTITLE2=情是這樣美
TTITLE3=Lady Rain
TTITLE4=仍能情深愛上
TTITLE5=感激我遇見
TTITLE6=用這歌說愛妳
TTITLE7=瀟灑講再見
TTITLE8=一雙一對
TTITLE9=歌舞技星角力騷
EXTD=
EXTT0=
EXTT1=
EXTT2=
EXTT3=
EXTT4=
EXTT5=
EXTT6=
EXTT7=
EXTT8=
EXTT9=
PLAYORDER=
